<svg width="173" height="47" viewBox="0 0 173 47" fill="none" xmlns="http://www.w3.org/2000/svg">
<path fill-rule="evenodd" clip-rule="evenodd" d="M28.9673 7.39361C29.5926 6.96235 30.2197 6.52986 30.9219 6.08959C32.0916 5.57456 33.3545 5.36452 34.416 5.59072C35.3845 5.7971 36.4546 6.41421 37.2891 8.18701C38.1739 10.0668 38.5359 13.2831 38.4972 16.8974C38.46 20.3697 38.0632 23.8015 37.7098 25.8922C37.0142 29.0311 35.9293 32.8784 34.6901 36.0821C34.0647 37.6989 33.4269 39.0815 32.815 40.1069C32.5099 40.6184 32.2381 40.9953 32.0101 41.2537C31.8216 41.4676 31.7121 41.5443 31.6921 41.5584C31.6898 41.56 31.6887 41.5607 31.6888 41.5608C31.6888 41.5609 31.689 41.5608 31.6894 41.5606C30.4571 42.1758 29.9543 43.6727 30.5664 44.9076C31.1797 46.1447 32.6796 46.6504 33.9167 46.0371C35.3238 45.3396 36.3623 43.92 37.1088 42.6688C37.9213 41.3071 38.6758 39.6377 39.3534 37.8859C40.7123 34.3726 41.8697 30.2446 42.6054 26.9103L42.6184 26.8516L42.6285 26.7923C43.0221 24.4868 43.4561 20.7574 43.4969 16.951C43.5365 13.254 43.2172 9.04069 41.8129 6.05753C40.3583 2.96735 38.056 1.25411 35.458 0.70051C32.993 0.175242 30.5505 0.750687 28.6907 1.61122L28.5529 1.675L28.4238 1.755C27.5614 2.28935 26.8091 2.80822 26.16 3.25587L26.16 3.25589L26.1272 3.27851C25.4508 3.74503 24.918 4.11058 24.407 4.41241C23.4571 4.97345 22.7215 5.23013 21.7695 5.23013C21.2785 5.23013 20.9967 5.11683 19.6792 4.26385L19.6589 4.25072C18.3537 3.40566 16.5279 2.22353 13.4066 1.11838C10.3568 0.0385215 7.75217 0.594426 5.81655 1.91784C4.07876 3.106 3.01639 4.80995 2.51231 6.11746C1.17787 8.82614 -0.379681 15.9357 1.10261 26.7123C2.65835 38.0228 8.14207 44.2736 11.2942 46.1486C12.4808 46.8545 14.015 46.4647 14.7208 45.2781C15.4267 44.0914 15.0369 42.5572 13.8503 41.8514C12.2334 40.8896 7.44338 36.1177 6.05597 26.031C4.62367 15.6179 6.32836 9.60829 7.02207 8.27868L7.10031 8.12872L7.15763 7.96958C7.36139 7.40397 7.87862 6.56493 8.63858 6.04533C9.2714 5.61266 10.2095 5.29052 11.7378 5.83166C14.3045 6.74046 15.7439 7.67243 16.936 8.44427L16.9361 8.44428L16.9618 8.46098L17.0995 8.55025C18.2607 9.30427 19.6866 10.2301 21.7695 10.2301C23.8833 10.2301 25.4982 9.57494 26.9498 8.71754C27.6315 8.31488 28.3045 7.85075 28.9435 7.41004L28.9435 7.41001L28.966 7.39451L28.9673 7.39361ZM31.6894 41.5606C31.69 41.5603 31.6909 41.5599 31.6922 41.5592C31.6932 41.5587 31.6944 41.5581 31.6959 41.5574C31.6938 41.5584 31.6916 41.5595 31.6894 41.5606ZM55.632 14.392V35H60.784V14.392H55.632ZM64.0382 14.392V35H72.9662C76.1449 35 78.5449 34.1893 80.1663 32.568C81.8089 30.9467 82.6302 28.3653 82.6302 24.824C82.6302 22.3067 82.2569 20.2907 81.5102 18.776C80.7636 17.24 79.6756 16.1307 78.2463 15.448C76.8169 14.744 75.0569 14.392 72.9662 14.392H64.0382ZM72.2623 31.032H69.1903V18.36H72.2623C73.4569 18.36 74.4276 18.552 75.1742 18.936C75.9423 19.2987 76.4969 19.9493 76.8382 20.888C77.2009 21.8053 77.3822 23.1173 77.3822 24.824C77.3822 26.5093 77.1796 27.8 76.7743 28.696C76.3903 29.592 75.8142 30.2107 75.0462 30.552C74.2996 30.872 73.3716 31.032 72.2623 31.032ZM87.017 33.368C88.617 34.6693 90.7397 35.32 93.385 35.32C94.5797 35.32 95.6783 35.2346 96.681 35.064C97.6837 34.9146 98.5477 34.6693 99.273 34.328V30.968C98.697 31.2027 97.9717 31.3947 97.097 31.544C96.2437 31.6933 95.401 31.768 94.569 31.768C93.0757 31.768 91.8917 31.576 91.017 31.192C90.1637 30.7867 89.6197 30.0827 89.385 29.08H100.137V26.36C100.137 24.2693 99.4757 22.6053 98.153 21.368C96.8303 20.1306 94.9637 19.512 92.553 19.512C89.9077 19.512 87.9237 20.2267 86.601 21.656C85.2783 23.0853 84.617 25.0053 84.617 27.416C84.617 30.0613 85.417 32.0453 87.017 33.368ZM95.657 26.104H89.385C89.385 25.0373 89.6303 24.2587 90.121 23.768C90.6117 23.256 91.4757 23 92.713 23C93.7797 23 94.537 23.224 94.985 23.672C95.433 24.0987 95.657 24.6853 95.657 25.432V26.104ZM107.557 19.832H102.757V35H107.909V24.664C108.293 24.28 108.773 23.96 109.349 23.704C109.925 23.448 110.49 23.32 111.045 23.32C111.984 23.32 112.634 23.5013 112.997 23.864C113.36 24.2267 113.541 24.8347 113.541 25.688V35H118.693V25.272C118.693 23.3093 118.245 21.8587 117.349 20.92C116.453 19.9813 115.024 19.512 113.061 19.512C111.994 19.512 110.992 19.6827 110.053 20.024C109.114 20.344 108.336 20.7173 107.717 21.144L107.557 19.832ZM123.868 33.88C124.764 34.84 126.151 35.32 128.028 35.32C129.522 35.32 130.77 35.1067 131.772 34.68V31.192C131.132 31.4053 130.503 31.512 129.884 31.512C129.159 31.512 128.615 31.3733 128.252 31.096C127.89 30.7973 127.708 30.2853 127.708 29.56V23.736H131.164L131.388 19.832H127.708V15.288L122.556 16.664V19.832H120.508V23.736H122.556V29.912C122.556 31.5973 122.994 32.92 123.868 33.88ZM134.781 13.56V17.432H140.381V13.56H134.781ZM135.197 23.64V35H140.349V19.832H133.405L132.957 23.64H135.197ZM144.336 23.736V35H149.488V23.736H153.008L153.232 19.832H149.488V18.68C149.488 17.976 149.659 17.4746 150 17.176C150.341 16.856 150.928 16.696 151.76 16.696C152.123 16.696 152.453 16.728 152.752 16.792C153.051 16.856 153.36 16.9413 153.68 17.048V13.592C153.147 13.3787 152.581 13.2187 151.984 13.112C151.387 12.984 150.704 12.92 149.936 12.92C148.08 12.92 146.683 13.4533 145.744 14.52C144.805 15.5866 144.336 16.9413 144.336 18.584V19.832H142.32V23.736H144.336ZM156.566 40.504C157.121 40.5893 157.782 40.632 158.55 40.632C159.873 40.632 161.004 40.344 161.942 39.768C162.881 39.2133 163.702 38.4133 164.406 37.368C165.11 36.344 165.75 35.1387 166.326 33.752L172.118 19.832H166.742L162.806 29.464L158.806 19.832H153.398L160.214 34.712C159.766 35.5013 159.318 36.0453 158.87 36.344C158.444 36.664 157.793 36.824 156.918 36.824C156.598 36.824 156.278 36.8027 155.958 36.76C155.66 36.7173 155.329 36.632 154.966 36.504V40.088C155.5 40.3013 156.033 40.44 156.566 40.504Z" fill="#123458"/>
</svg>
